<svg width="120" height="120" viewBox="0 0 120 120" fill="none" xmlns="http://www.w3.org/2000/svg">
<path d="M59.9999 119.826C93.041 119.826 119.826 93.041 119.826 60C119.826 26.9589 93.041 0.173889 59.9999 0.173889C26.9589 0.173889 0.173828 26.9589 0.173828 60C0.173828 93.041 26.9589 119.826 59.9999 119.826Z" fill="#131313" fill-opacity="0.03"/>
<path d="M88.0542 78.8316C86.7504 72.3078 83.2141 66.4422 78.0534 62.2437C72.8927 58.0452 66.4303 55.7762 59.7776 55.8271C53.125 55.8779 46.698 58.2453 41.6021 62.5222C36.5061 66.7991 33.0598 72.718 31.8558 79.261C31.4117 81.4814 31.4659 83.7726 32.0144 85.9695C32.5629 88.1664 33.5921 90.2142 35.0278 91.9652C36.4635 93.7162 38.2699 95.1268 40.3167 96.0952C42.3636 97.0636 44.5998 97.5657 46.8641 97.5653H73.1358C75.4011 97.5689 77.6388 97.0678 79.6863 96.0986C81.7339 95.1294 83.5398 93.7163 84.973 91.962C86.4438 90.1476 87.4849 88.0239 88.0185 85.75C88.5521 83.4761 88.5643 81.1109 88.0542 78.8316Z" fill="#B9B9B9"/>
<path d="M59.9999 64.174C71.5259 64.174 80.8695 54.8304 80.8695 43.3044C80.8695 31.7785 71.5259 22.4349 59.9999 22.4349C48.474 22.4349 39.1304 31.7785 39.1304 43.3044C39.1304 54.8304 48.474 64.174 59.9999 64.174Z" fill="#E8E8E8"/>
</svg>
